<?xml version="1.0" encoding="UTF-8"?>
<svg version="1.1" xmlns="http://www.w3.org/2000/svg" width="512" height="512">
<path d="M0 0 C1.25669916 -0.00538554 2.51339831 -0.01077108 3.80817926 -0.01631981 C7.2663099 -0.03067698 10.72420024 -0.02656059 14.18234348 -0.019153 C17.92334749 -0.0143995 21.66430113 -0.02695014 25.4052887 -0.03717041 C32.72145061 -0.05431927 40.03752649 -0.05520684 47.35370328 -0.04995751 C53.30112246 -0.04590845 59.24851631 -0.04736807 65.1959343 -0.05270576 C66.0438813 -0.05345419 66.89182831 -0.05420261 67.76547068 -0.05497371 C69.48828123 -0.05650525 71.21109177 -0.05804359 72.93390231 -0.05958868 C89.06896118 -0.07329872 105.20397149 -0.06788581 121.33902924 -0.05640347 C136.09214467 -0.04646534 150.8451348 -0.05942441 165.59823091 -0.08333766 C180.76227206 -0.10773118 195.92625485 -0.11733636 211.09031522 -0.11068493 C219.59769867 -0.10719422 228.10498569 -0.10941543 236.61235428 -0.12693596 C243.85166336 -0.14166079 251.09080803 -0.14228937 258.3301139 -0.12486505 C262.02144403 -0.1163563 265.71248048 -0.11420232 269.40379524 -0.1295166 C273.40932717 -0.14592861 277.41415133 -0.13120929 281.41967773 -0.11352539 C282.58047997 -0.1231304 283.74128221 -0.1327354 284.93726027 -0.14263147 C294.78033957 -0.05322895 302.04050967 2.61118636 309.28988647 9.32518005 C315.672658 16.66745319 317.23738221 24.72836852 317.21428299 34.17459393 C317.21633562 34.95570745 317.21838826 35.73682098 317.22050309 36.54160461 C317.22617427 39.16875357 317.22471569 41.79585013 317.22329712 44.42300415 C317.22588068 46.32172608 317.22889382 48.22044747 317.23230052 50.1191681 C317.24037475 55.34469346 317.24216033 60.57020509 317.24289799 65.79573596 C317.2447478 71.42847921 317.25229476 77.06121533 317.2590332 82.69395447 C317.27261994 95.01418387 317.27864174 107.33441003 317.28304386 119.65464568 C317.28580564 127.34595989 317.29004287 135.03727284 317.29454803 142.7285862 C317.30674102 164.01939805 317.31707574 185.31020858 317.32042313 206.60102367 C317.32064476 207.97766768 317.32086654 209.35431168 317.32108848 210.73095568 C317.32130912 212.11091116 317.3215296 213.49086665 317.32174993 214.87082213 C317.32219248 217.63921813 317.32263959 220.40761413 317.3230896 223.17601013 C317.32325369 224.20561082 317.32325369 224.20561082 317.32342109 225.25601152 C317.32705164 247.51204765 317.34297191 269.7680512 317.36627996 292.02407484 C317.39088127 315.55803808 317.40458938 339.09197608 317.40579104 362.62595445 C317.40670813 375.45328288 317.412469 388.28056867 317.43061066 401.10788536 C317.4460034 412.03010793 317.45113696 422.95227467 317.44287255 433.87450602 C317.43896318 439.44732998 317.43990979 445.02004148 317.4539299 450.59285164 C317.46665128 455.69609083 317.46548669 460.79913283 317.45333919 465.90237168 C317.45137915 467.74693895 317.45447476 469.5915201 317.46318355 471.43606784 C317.56637634 494.77318622 317.56637634 494.77318622 309.35813546 504.18750495 C301.60603758 511.68371245 292.42715202 513.26944668 282.05459595 513.14285278 C280.79789778 513.15150716 279.5411996 513.16016154 278.24641967 513.16907817 C274.79238684 513.19198932 271.33938178 513.17798196 267.88537169 513.15736902 C264.14694563 513.14163915 260.4086664 513.16069734 256.67025757 513.1751709 C249.35912962 513.19792848 242.04838544 513.18856147 234.73726538 513.16767003 C228.78991096 513.15134306 222.84266081 513.14719698 216.89528656 513.15163612 C216.04672074 513.1522668 215.19815493 513.15289747 214.323875 513.15354726 C212.59962908 513.15489342 210.87538319 513.15627299 209.15113732 513.15768562 C193.00291664 513.16960708 176.85490547 513.14559837 160.70673248 513.10866753 C146.87858194 513.07779926 133.05067271 513.07539427 119.22250366 513.09446716 C103.13575213 513.11662997 87.04913567 513.12267567 70.96237731 513.10214454 C69.24348054 513.09998179 67.52458375 513.09783269 65.80568695 513.0956974 C64.96013223 513.09463104 64.11457752 513.09356467 63.24339993 513.09246599 C57.31160725 513.08602201 51.37988455 513.09073454 45.44809723 513.09972191 C38.20676137 513.11030951 30.96570739 513.1025924 23.7244232 513.07226612 C20.03622868 513.05724075 16.34847714 513.04983727 12.66027069 513.06445694 C-11.16221708 513.14975642 -30.56807461 510.93487783 -48.67105103 493.7587738 C-63.6499375 477.94627974 -67.39632561 458.81139022 -67.2980957 437.76463318 C-67.30155998 436.12910399 -67.30632967 434.49357715 -67.31227744 432.85805511 C-67.32471146 428.40162668 -67.31865198 423.94539289 -67.30931878 419.48896408 C-67.30249724 414.66816185 -67.31302484 409.84739179 -67.32125854 405.02659607 C-67.33456508 395.59759889 -67.33173189 386.16867355 -67.32302062 376.73967361 C-67.31623234 369.07326419 -67.3153323 361.40687483 -67.31859207 353.74046326 C-67.31905177 352.64735919 -67.31951147 351.55425511 -67.3199851 350.42802668 C-67.32094432 348.20707638 -67.32191696 345.9861261 -67.32290287 343.76517582 C-67.33144775 322.96260151 -67.32163681 302.16006692 -67.30550177 281.35749912 C-67.29209942 263.52639371 -67.29442777 245.69534691 -67.30825806 227.86424255 C-67.32432982 207.13368007 -67.33062386 186.40315237 -67.32142127 165.67258453 C-67.32046567 163.46002198 -67.31952255 161.24745942 -67.31859207 159.03489685 C-67.31812924 157.94640898 -67.31766642 156.85792111 -67.31718957 155.73644876 C-67.31460447 148.08348153 -67.3189603 140.43053644 -67.32603073 132.77757263 C-67.33446368 123.44511275 -67.33212792 114.11272852 -67.3161885 104.78027725 C-67.30832992 100.02307728 -67.30517284 95.26600323 -67.31513596 90.50880432 C-67.32413358 86.14647896 -67.31906733 81.7843952 -67.3032033 77.42209148 C-67.29987682 75.85161418 -67.30150096 74.28111608 -67.30883066 72.71065235 C-67.36361735 59.98713479 -66.3554965 47.5467379 -60.22964478 36.13768005 C-59.88079224 35.46930115 -59.5319397 34.80092224 -59.17251587 34.11228943 C-50.92522479 18.78054939 -38.06668336 8.22227497 -21.59536898 2.59437889 C-14.29698661 0.41420759 -7.58753166 -0.03943596 0 0 Z M-31.79214478 39.32518005 C-40.04186097 49.38012827 -41.21476969 59.3675 -41.15765381 72.02328491 C-41.15852657 73.41938482 -41.16027886 74.8154844 -41.16283214 76.21158224 C-41.16729578 80.03813936 -41.15931555 83.86458413 -41.14927602 87.69112694 C-41.14062962 91.82124009 -41.14356252 95.95134703 -41.14508057 100.08146667 C-41.14612866 107.23393184 -41.13985991 114.38636048 -41.12860489 121.53881645 C-41.11234268 131.88002983 -41.10714114 142.22122557 -41.10462891 152.56245036 C-41.10025294 169.34087352 -41.08694649 186.11927722 -41.06802368 202.89768982 C-41.04966235 219.19521487 -41.03550708 235.49273464 -41.02700806 251.79026794 C-41.02648261 252.79504639 -41.02595716 253.79982483 -41.02541579 254.83505111 C-41.0228057 259.87578865 -41.02027829 264.91652623 -41.01779199 269.95726383 C-40.99706254 311.76741611 -40.96183967 353.57754697 -40.91714478 395.38768005 C-37.23287411 393.94478344 -33.78956177 392.30258555 -30.29214478 390.45018005 C-17.42554933 383.98534656 -4.73193156 383.23037858 9.44677734 383.26742554 C10.65588599 383.26657111 11.86499463 383.26571669 13.11074293 383.26483637 C16.44023441 383.26348145 19.7696662 383.26657843 23.09915042 383.27161443 C26.69955358 383.27595464 30.29995507 383.27446998 33.90036011 383.27371216 C40.12949683 383.27318918 46.35862303 383.27631234 52.58775711 383.28195 C61.59391015 383.29009566 70.60005813 383.29268336 79.60621445 383.29393799 C94.22001295 383.29612369 108.83380585 383.30277072 123.44760132 383.3122406 C137.63900728 383.32142718 151.83041173 383.32850192 166.02182007 383.33274841 C166.89736953 383.33301114 167.772919 383.33327386 168.67500027 383.33354454 C173.06761086 383.33484963 177.46022147 383.33611333 181.85283208 383.33735645 C218.26284375 383.34771407 254.67284905 383.36531928 291.08285522 383.38768005 C291.15146615 338.2138555 291.20435592 293.04003644 291.23605121 247.86617009 C291.2398035 242.53748387 291.24368645 237.20879776 291.24765015 231.88011169 C291.24843708 230.81923038 291.24922401 229.75834907 291.25003479 228.66531984 C291.26310195 211.4696035 291.28676298 194.27391714 291.31431361 177.0782186 C291.34233141 159.44436248 291.35902379 141.81052209 291.36512071 124.17664462 C291.36924469 113.28857547 291.38228722 102.40059103 291.40660463 91.51254795 C291.42241709 84.05432524 291.42726581 76.59614657 291.42335936 69.1379083 C291.42143078 64.8297366 291.42446387 60.5217133 291.44047165 56.21356773 C291.45500444 52.2737811 291.45585108 48.33424354 291.44555191 44.39444575 C291.44427786 42.96505633 291.44813948 41.53565176 291.45750477 40.10629245 C291.46945182 38.17122768 291.46130075 36.2360694 291.45199871 34.3009901 C291.45313787 33.22372353 291.45427703 32.14645695 291.45545071 31.03654593 C291.28834791 28.37705208 291.28834791 28.37705208 289.77040082 26.53938419 C286.96317056 24.62352562 283.84604522 25.02292231 280.57113647 25.0947113 C279.84291183 25.09895615 279.11468719 25.10320099 278.36439514 25.10757446 C276.04100395 25.12435272 273.71848372 25.16200151 271.39535522 25.20018005 C269.81919589 25.21522808 268.24302294 25.22891628 266.6668396 25.24119568 C262.80517645 25.2742532 258.94416345 25.32602812 255.08285522 25.38768005 C255.08231046 26.06059837 255.08176569 26.73351669 255.08120441 27.42682648 C255.06622045 43.8197694 255.0237086 60.21238818 254.95076466 76.6051712 C254.91614905 84.53270528 254.89076366 92.4600661 254.88729858 100.38768005 C254.88425389 107.29947007 254.86369591 114.21095124 254.82233065 121.12262201 C254.80104432 124.78053266 254.78837724 128.43800472 254.79670143 132.09597778 C254.80567815 136.18517865 254.77554565 140.27321388 254.74227905 144.36228943 C254.75521751 146.17059235 254.75521751 146.17059235 254.76841736 148.01542664 C254.65094618 156.63446816 252.82146952 161.74492766 246.64535522 167.76268005 C241.48490253 171.03516225 236.16298291 172.3902543 230.08285522 171.38768005 C216.04949239 166.98549458 209.68067067 152.84314928 202.70565796 140.94676208 C201.67790628 139.20022199 200.63646586 137.46175941 199.59457397 135.72361755 C198.99088989 134.6980072 198.38720581 133.67239685 197.76522827 132.6157074 C196.93245361 131.51283386 196.93245361 131.51283386 196.08285522 130.38768005 C195.09285522 130.38768005 194.10285522 130.38768005 193.08285522 130.38768005 C191.27432002 132.69437454 191.27432002 132.69437454 189.57113647 135.72361755 C188.89502319 136.85154724 188.21890991 137.97947693 187.52230835 139.1415863 C186.81236311 140.34805265 186.10338309 141.55508748 185.39535522 142.76268005 C170.7187942 167.68279709 170.7187942 167.68279709 159.08285522 171.38768005 C152.89309351 172.66712801 147.32170235 170.62696721 142.08285522 167.38768005 C137.53370916 163.45686452 135.3300016 158.75073187 134.89045334 152.76956558 C134.79603282 149.43607294 134.77004084 146.10777135 134.76400757 142.77293396 C134.74893913 140.86967346 134.74893913 140.86967346 134.73356628 138.92796326 C134.70634217 135.46149969 134.69113952 131.99507658 134.67813826 128.52853441 C134.66247436 124.90100004 134.63569458 121.27354789 134.61010742 117.64607239 C134.56337719 110.78268875 134.5266053 103.91928955 134.49343455 97.05582845 C134.45517241 89.239584 134.405773 81.42342225 134.35545039 73.60724759 C134.25221618 57.53411787 134.16292821 41.4609422 134.08285522 25.38768005 C115.88873974 25.31746225 97.69465964 25.26462948 79.50043774 25.23224354 C71.05170843 25.21680355 62.60306354 25.19576918 54.15438843 25.16136169 C46.78675013 25.13137118 39.41917299 25.11208422 32.05147535 25.10541457 C28.15374348 25.10151859 24.25618653 25.09242301 20.35851097 25.07048988 C16.68215725 25.04997181 13.00604879 25.04387682 9.32964325 25.04835701 C7.35290379 25.0471514 5.37619041 25.03109007 3.39952087 25.01441956 C-11.06132843 25.06405384 -21.82751411 28.55489839 -31.79214478 39.32518005 Z M159.08285522 25.38768005 C159.08285522 62.01768005 159.08285522 98.64768005 159.08285522 136.38768005 C161.7397508 133.06656058 164.04756444 130.02624343 166.28988647 126.47361755 C166.87705444 125.54678162 167.46422241 124.61994568 168.06918335 123.6650238 C168.67182007 122.70725037 169.27445679 121.74947693 169.89535522 120.76268005 C171.08936564 118.87465922 172.28337606 116.98663839 173.47738647 115.09861755 C174.0672937 114.16243591 174.65720093 113.22625427 175.26498413 112.26170349 C177.69293654 108.42315182 180.14938797 104.60299818 182.60897827 100.78465271 C184.0986074 98.45218194 184.0986074 98.45218194 185.17977905 96.11961365 C186.08285522 94.38768005 186.08285522 94.38768005 187.70785522 93.63768005 C193.47221699 93.03090513 198.79684712 92.744676 204.08285522 95.38768005 C204.79145273 97.0369562 205.45238741 98.70698598 206.08285522 100.38768005 C207.02437539 102.01372852 208.00768053 103.6160659 209.02426147 105.1962738 C209.6040979 106.10232361 210.18393433 107.00837341 210.78134155 107.94187927 C211.39646606 108.89336853 212.01159058 109.84485779 212.64535522 110.82518005 C213.27143677 111.79987244 213.89751831 112.77456482 214.54257202 113.77879333 C215.79984188 115.73555185 217.05868967 117.69129747 218.31918335 119.64598083 C219.88060561 122.07327485 221.430655 124.50713536 222.97348022 126.9462738 C223.38912231 127.60119812 223.8047644 128.25612244 224.23300171 128.93089294 C225.32571783 130.65293644 226.41721863 132.37575093 227.50863647 134.09861755 C228.02812866 134.85400818 228.54762085 135.6093988 229.08285522 136.38768005 C229.41285522 136.38768005 229.74285522 136.38768005 230.08285522 136.38768005 C230.08285522 99.75768005 230.08285522 63.12768005 230.08285522 25.38768005 C206.65285522 25.38768005 183.22285522 25.38768005 159.08285522 25.38768005 Z M-33.22964478 424.09080505 C-39.97097852 433.26650932 -41.94903877 443.11423812 -40.91714478 454.38768005 C-38.34901758 466.44036793 -31.85415365 475.21713445 -21.91714478 482.38768005 C-15.76866315 485.52060681 -9.70435419 487.51090206 -2.79218102 487.51631451 C-1.23023209 487.52115118 -1.23023209 487.52115118 0.36327136 487.52608556 C2.07716541 487.52376265 2.07716541 487.52376265 3.82568359 487.52139282 C5.04050521 487.52365838 6.25532683 487.52592394 7.50696123 487.52825814 C10.88034765 487.53349975 14.25368084 487.53424195 17.62706757 487.53306377 C21.26442854 487.5328599 24.90178153 487.53837704 28.53913879 487.54312134 C35.66472317 487.55143045 42.79029927 487.55417626 49.91588809 487.55473372 C55.70477432 487.55520859 61.49365782 487.5572619 67.28254318 487.56043434 C83.68402658 487.56924029 100.08550343 487.57385361 116.48698922 487.57310387 C117.37133984 487.57306391 118.25569047 487.57302396 119.1668396 487.57298279 C120.05226556 487.57294191 120.93769152 487.57290103 121.84994857 487.57285891 C136.21374291 487.57245207 150.57751108 487.58203124 164.94129784 487.59612115 C179.67905773 487.61046429 194.41680484 487.61739253 209.15457189 487.61652738 C217.43321486 487.61619478 225.71183037 487.61896964 233.99046707 487.62970543 C241.035768 487.63878317 248.08102902 487.64100813 255.12633325 487.63419601 C258.7235101 487.63091741 262.32061024 487.63092206 265.91777992 487.63954926 C269.80988744 487.64878825 273.70188127 487.64267357 277.59399414 487.63491821 C278.74105162 487.64006178 279.8881091 487.64520534 281.0699259 487.65050477 C282.10600969 487.64590597 283.14209348 487.64130718 284.20957375 487.63656902 C285.10886152 487.63678639 286.00814929 487.63700376 286.93468821 487.63722771 C289.29624439 487.58815027 289.29624439 487.58815027 291.08285522 485.38768005 C291.36112774 482.76611585 291.36112774 482.76611585 291.27816772 479.72361755 C291.27172241 478.60213318 291.2652771 477.4806488 291.25863647 476.32518005 C291.24187866 475.14955505 291.22512085 473.97393005 291.20785522 472.76268005 C291.19432007 470.98764099 291.19432007 470.98764099 291.18051147 469.17674255 C291.15688335 466.24685483 291.12394037 463.31736665 291.08285522 460.38768005 C290.49054607 460.38843949 289.89823692 460.38919894 289.28797901 460.38998139 C254.19066831 460.43472789 219.09336253 460.4690483 183.99602925 460.48981071 C179.78278369 460.49231216 175.56953819 460.4949008 171.35629272 460.49754333 C170.09810939 460.49833027 170.09810939 460.49833027 168.81450821 460.4991331 C155.22914728 460.50783806 141.64380325 460.52360854 128.05845235 460.54198565 C114.12085149 460.56068214 100.18325949 460.57179625 86.2456466 460.57585704 C77.64392194 460.57860262 69.04224509 460.58727746 60.44053514 460.60351299 C54.54373549 460.61407677 48.64696058 460.61728205 42.75015216 460.61468281 C39.34692825 460.61340057 35.94378792 460.61537999 32.54057884 460.626091 C28.85106174 460.63601201 25.16175068 460.63365916 21.472229 460.62818909 C20.39634958 460.63401477 19.32047016 460.63984045 18.21198833 460.64584267 C12.06478011 460.62113611 6.96304471 460.41159699 1.77035522 456.76268005 C-0.56976482 453.46917777 -1.11611003 450.3448779 -0.91714478 446.38768005 C0.13554196 442.26532665 1.45717878 439.80479768 5.08285522 437.38768005 C8.45301101 436.5130093 11.61401584 436.25985209 15.08657551 436.24901485 C16.07536491 436.24354041 17.06415431 436.23806597 18.08290702 436.23242563 C19.70109542 436.23095847 19.70109542 436.23095847 21.35197449 436.22946167 C22.50372482 436.22452369 23.65547516 436.21958572 24.84212703 436.2144981 C28.03467445 436.20179902 31.22719836 436.19350601 34.41976345 436.18707144 C37.86416483 436.17905634 41.30854418 436.16536239 44.75292969 436.15235901 C50.71913271 436.13061201 56.68533797 436.11246103 62.65155983 436.09675407 C71.27770914 436.07403927 79.90383404 436.04589867 88.52996262 436.0164348 C102.52536591 435.96877864 116.52077918 435.9255091 130.51620483 435.88499451 C144.11126482 435.84562952 157.70631594 435.80420089 171.30136108 435.75999451 C172.13939322 435.75727023 172.97742536 435.75454596 173.84085242 435.75173914 C178.04502338 435.73805949 182.24919421 435.72433925 186.45336497 435.71059883 C221.32984333 435.5966651 256.20634049 435.48984888 291.08285522 435.38768005 C291.1696243 431.26281167 291.22316818 427.13817621 291.27035522 423.01268005 C291.29549194 421.83705505 291.32062866 420.66143005 291.3465271 419.45018005 C291.35619507 418.32869568 291.36586304 417.2072113 291.37582397 416.05174255 C291.39153442 415.01485291 291.40724487 413.97796326 291.4234314 412.90965271 C291.31104126 412.07740173 291.19865112 411.24515076 291.08285522 410.38768005 C287.82275859 408.2142823 286.92189433 408.13689165 283.15293121 408.13320446 C282.12962346 408.12737227 281.1063157 408.12154007 280.05199862 408.11553115 C278.92430166 408.11931047 277.7966047 408.12308979 276.63473511 408.12698364 C275.43936866 408.1231581 274.24400222 408.11933255 273.01241255 408.11539108 C269.68828917 408.10683747 266.36438617 408.10730248 263.0402689 408.11157167 C259.45724373 408.11403225 255.87424487 408.10503276 252.29122925 408.09753418 C245.26742288 408.08476382 238.2436547 408.08299661 231.21983868 408.08533444 C225.50823386 408.08711614 219.79664066 408.08537113 214.08503723 408.08111 C213.27266345 408.08051481 212.46028967 408.07991962 211.6232985 408.0793064 C209.97296814 408.07809465 208.32263778 408.07688052 206.67230743 408.07566402 C191.18151547 408.06477825 175.69074526 408.06695513 160.19995207 408.07304887 C146.03938703 408.07821178 131.87889091 408.06698099 117.7183395 408.04795065 C103.17605531 408.02855743 88.63380369 408.02031931 74.09150648 408.0240739 C65.92824507 408.02598462 57.76504223 408.02351159 49.60179138 408.00935936 C42.64746724 407.99742524 35.69323766 407.99606292 28.73891217 408.00814953 C25.19325057 408.01402571 21.64776175 408.0151731 18.10211182 408.00314713 C14.25027115 407.9902352 10.39869023 408.00078379 6.54684448 408.01345825 C5.4369933 408.00608397 4.32714211 407.99870968 3.18365908 407.99111193 C-11.57782751 408.09299124 -23.65938552 412.59105804 -33.22964478 424.09080505 Z " fill="#000000" transform="translate(130.91714477539063,-0.3876800537109375)"/>
</svg>
